<?xml version="1.0" encoding="UTF-8" standalone="no"?>
<!DOCTYPE svg PUBLIC "-//W3C//DTD SVG 1.1//EN" "http://www.w3.org/Graphics/SVG/1.1/DTD/svg11.dtd">
<svg version="1.1" xmlns="http://www.w3.org/2000/svg" xmlns:xlink="http://www.w3.org/1999/xlink" preserveAspectRatio="xMidYMid meet" viewBox="0 0 640 640" width="640" height="640"><defs><path d="M488.4 124.4C493.93 124.4 498.4 128.88 498.4 134.4C498.4 136.84 498.4 134.13 498.4 136.56C498.4 142.08 493.93 146.56 488.4 146.56C419.04 146.56 220.96 146.56 151.6 146.56C146.07 146.56 141.6 142.08 141.6 136.56C141.6 134.13 141.6 136.84 141.6 134.4C141.6 128.88 146.07 124.4 151.6 124.4C220.96 124.4 419.04 124.4 488.4 124.4Z" id="e1iE6tK03t"></path><path d="M488.4 165.73C493.93 165.73 498.4 170.21 498.4 175.73C498.4 178.16 498.4 175.46 498.4 177.89C498.4 183.41 493.93 187.89 488.4 187.89C419.04 187.89 220.96 187.89 151.6 187.89C146.07 187.89 141.6 183.41 141.6 177.89C141.6 175.46 141.6 178.16 141.6 175.73C141.6 170.21 146.07 165.73 151.6 165.73C220.96 165.73 419.04 165.73 488.4 165.73Z" id="ckHcUE2OS"></path><path d="M488.4 207.82C493.93 207.82 498.4 212.3 498.4 217.82C498.4 220.25 498.4 217.55 498.4 219.98C498.4 225.5 493.93 229.98 488.4 229.98C419.04 229.98 220.96 229.98 151.6 229.98C146.07 229.98 141.6 225.5 141.6 219.98C141.6 217.55 141.6 220.25 141.6 217.82C141.6 212.3 146.07 207.82 151.6 207.82C220.96 207.82 419.04 207.82 488.4 207.82Z" id="b4lwfBhPG"></path></defs><g><g><g><use xlink:href="#e1iE6tK03t" opacity="1" fill="#ffffff" fillOpacity="1"></use><g><use xlink:href="#e1iE6tK03t" opacity="1" fillOpacity="0" stroke="#d2c3ef" stroke-width="1" stroke-opacity="1"></use></g></g><g><use xlink:href="#ckHcUE2OS" opacity="1" fill="#ffffff" fillOpacity="1"></use><g><use xlink:href="#ckHcUE2OS" opacity="1" fillOpacity="0" stroke="#d2c3ef" stroke-width="1" stroke-opacity="1"></use></g></g><g><use xlink:href="#b4lwfBhPG" opacity="1" fill="#ffffff" fillOpacity="1"></use><g><use xlink:href="#b4lwfBhPG" opacity="1" fillOpacity="0" stroke="#d2c3ef" stroke-width="1" stroke-opacity="1"></use></g></g></g></g></svg>